<svg width="35" height="35" viewBox="0 0 35 35" fill="none" xmlns="http://www.w3.org/2000/svg">
<path d="M8.75 10.5V24.3325C8.75 26.3174 8.75 27.3096 9.04767 27.9169C9.5994 29.0426 10.8085 29.6895 12.0512 29.5242C12.7216 29.435 13.5474 28.8845 15.1989 27.7835L15.2029 27.7808C15.8575 27.3444 16.1848 27.1262 16.5272 27.0052C17.1561 26.7829 17.8424 26.7829 18.4713 27.0052C18.8144 27.1265 19.143 27.3455 19.8003 27.7837C21.4518 28.8847 22.2785 29.4348 22.9489 29.524C24.1915 29.6893 25.4006 29.0426 25.9524 27.9169C26.25 27.3097 26.25 26.317 26.25 24.3325V10.4952C26.25 8.86487 26.25 8.04851 25.9324 7.42521C25.6528 6.87641 25.2054 6.43054 24.6566 6.15091C24.0327 5.83301 23.2171 5.83301 21.5836 5.83301H13.417C11.7835 5.83301 10.9661 5.83301 10.3422 6.15091C9.7934 6.43054 9.34753 6.87641 9.0679 7.42521C8.75 8.04912 8.75 8.86647 8.75 10.5Z" stroke="#FAFAFA" stroke-width="2" stroke-linecap="round" stroke-linejoin="round"/>
</svg>
