<svg width="35" height="35" viewBox="0 0 35 35" fill="none" xmlns="http://www.w3.org/2000/svg">
<path d="M29.1673 24.7917V16.701C29.1673 15.9217 29.1666 15.5319 29.0719 15.1693C28.9879 14.848 28.8501 14.5439 28.6636 14.2691C28.4531 13.959 28.1604 13.7019 27.574 13.1887L20.574 7.06373C19.4852 6.11102 18.9408 5.63491 18.3281 5.45372C17.7882 5.29407 17.2128 5.29407 16.6729 5.45372C16.0607 5.63477 15.5171 6.11043 14.4299 7.0617L7.42761 13.1887C6.84117 13.7019 6.54863 13.959 6.33813 14.2691C6.1516 14.5439 6.0127 14.848 5.92873 15.1693C5.83398 15.5319 5.83398 15.9217 5.83398 16.701V24.7917C5.83398 26.1507 5.83398 26.83 6.056 27.366C6.35203 28.0806 6.91945 28.6491 7.63411 28.9451C8.17011 29.1672 8.84961 29.1672 10.2086 29.1672C11.5676 29.1672 12.2479 29.1672 12.7839 28.9451C13.4985 28.6491 14.0658 28.0808 14.3618 27.3661C14.5838 26.8301 14.584 26.1506 14.584 24.7916V23.3333C14.584 21.7224 15.8898 20.4166 17.5007 20.4166C19.1115 20.4166 20.4173 21.7224 20.4173 23.3333V24.7916C20.4173 26.1506 20.4173 26.8301 20.6393 27.3661C20.9354 28.0808 21.5028 28.6491 22.2174 28.9451C22.7534 29.1672 23.4329 29.1672 24.7919 29.1672C26.1509 29.1672 26.8312 29.1672 27.3672 28.9451C28.0819 28.6491 28.6491 28.0806 28.9451 27.366C29.1672 26.83 29.1673 26.1507 29.1673 24.7917Z" stroke="#FAFAFA" stroke-width="2" stroke-linecap="round" stroke-linejoin="round"/>
</svg>
