<svg width="35" height="35" viewBox="0 0 35 35" fill="none" xmlns="http://www.w3.org/2000/svg">
<path d="M29.6765 13.0124L29.1424 12.7153C29.0595 12.6691 29.0187 12.646 28.9787 12.622C28.5804 12.3834 28.2447 12.0538 27.9998 11.6595C27.9751 11.6198 27.9519 11.5782 27.9044 11.4959C27.857 11.4138 27.8329 11.3722 27.8109 11.331C27.5911 10.9207 27.4723 10.4635 27.4652 9.99818C27.4645 9.9514 27.4646 9.9036 27.4662 9.80857L27.4767 9.1884C27.4934 8.19596 27.5017 7.6982 27.3623 7.25149C27.2384 6.8547 27.0311 6.48923 26.7544 6.17908C26.4415 5.8285 26.0085 5.57838 25.1415 5.07879L24.4214 4.6638C23.5568 4.1656 23.1244 3.91641 22.6654 3.82142C22.2593 3.73737 21.8403 3.74127 21.4357 3.8321C20.979 3.93461 20.552 4.19029 19.6985 4.70136L19.6936 4.70368L19.1776 5.01264C19.0961 5.0615 19.0548 5.08612 19.0139 5.10886C18.608 5.33449 18.155 5.45925 17.6909 5.47415C17.6441 5.47565 17.5966 5.47565 17.5014 5.47565C17.4069 5.47565 17.3572 5.47565 17.3106 5.47415C16.8455 5.45919 16.3915 5.33375 15.985 5.10718C15.9441 5.08435 15.9036 5.05953 15.8218 5.01044L15.3025 4.6987C14.4432 4.18279 14.0128 3.92444 13.5537 3.82142C13.1474 3.73027 12.7269 3.72775 12.3194 3.81287C11.8592 3.90899 11.4267 4.16002 10.5616 4.66209L10.5578 4.6638L9.84659 5.07656L9.83872 5.08138C8.98145 5.57893 8.55178 5.8283 8.24157 6.17746C7.96629 6.4873 7.76054 6.85219 7.63738 7.24793C7.49818 7.69525 7.50559 8.19407 7.52237 9.19119L7.53279 9.81048C7.53437 9.90427 7.53711 9.95087 7.53642 9.99699C7.52952 10.4633 7.4091 10.9214 7.18872 11.3324C7.16693 11.373 7.14345 11.4137 7.09655 11.4949C7.04962 11.5761 7.02689 11.6165 7.00256 11.6557C6.7565 12.0522 6.4193 12.3837 6.01854 12.6227C5.9789 12.6463 5.93712 12.6691 5.85503 12.7145L5.32775 13.0067C4.45047 13.4929 4.01193 13.7362 3.69282 14.0824C3.41053 14.3887 3.19728 14.752 3.0671 15.1477C2.91995 15.595 2.92008 16.0965 2.92236 17.0995L2.92422 17.9193C2.92648 18.9156 2.92958 19.4134 3.07706 19.8576C3.20753 20.2506 3.41923 20.6118 3.69994 20.9162C4.01724 21.2604 4.45142 21.5022 5.32205 21.9865L5.84463 22.2772C5.93357 22.3267 5.97832 22.3511 6.02121 22.3769C6.41834 22.6161 6.7529 22.9467 6.99686 23.3409C7.02321 23.3834 7.04852 23.4277 7.09911 23.516C7.14908 23.6033 7.17464 23.647 7.19775 23.6907C7.41165 24.0957 7.52617 24.5457 7.53398 25.0036C7.53482 25.053 7.5341 25.1031 7.5324 25.2037L7.52237 25.798C7.50548 26.7985 7.49812 27.2993 7.63815 27.7479C7.76202 28.1447 7.96907 28.5101 8.24584 28.8203C8.55869 29.1709 8.9924 29.4208 9.85941 29.9205L10.5794 30.3353C11.444 30.8336 11.8761 31.0824 12.3351 31.1774C12.7412 31.2615 13.1605 31.2582 13.5651 31.1674C14.0224 31.0647 14.4508 30.8082 15.3068 30.2956L15.8228 29.9867C15.9044 29.9378 15.9458 29.9133 15.9867 29.8905C16.3925 29.6649 16.8451 29.5395 17.3092 29.5246C17.3559 29.5231 17.4035 29.5231 17.4986 29.5231C17.594 29.5231 17.6415 29.5231 17.6884 29.5246C18.1535 29.5396 18.6088 29.6654 19.0153 29.892C19.0511 29.9119 19.0869 29.9334 19.1498 29.9712L19.6983 30.3006C20.5578 30.8165 20.9872 31.0741 21.4464 31.1771C21.8527 31.2683 22.2735 31.272 22.6811 31.1869C23.1411 31.0908 23.5745 30.8393 24.4391 30.3375L25.161 29.9185C26.0188 29.4206 26.4489 29.171 26.7592 28.8217C27.0345 28.5119 27.2405 28.1472 27.3637 27.7514C27.5019 27.3073 27.4935 26.8124 27.477 25.8296L27.4662 25.1887C27.4646 25.0949 27.4645 25.0483 27.4651 25.0021C27.472 24.5358 27.5905 24.0774 27.8109 23.6664C27.8326 23.6258 27.8563 23.5849 27.903 23.5039C27.95 23.4227 27.9742 23.3822 27.9986 23.343C28.2446 22.9466 28.5822 22.6147 28.9829 22.3758C29.0221 22.3524 29.0624 22.3301 29.1425 22.2857L29.1453 22.2844L29.6726 21.9922C30.5499 21.506 30.9892 21.2625 31.3084 20.9162C31.5906 20.61 31.8036 20.2472 31.9338 19.8515C32.0801 19.4068 32.0789 18.9082 32.0767 17.9169L32.0748 17.0796C32.0725 16.0833 32.0713 15.5855 31.9238 15.1413C31.7933 14.7483 31.5805 14.3871 31.2998 14.0827C30.9828 13.7389 30.548 13.497 29.679 13.0136L29.6765 13.0124Z" stroke="white" stroke-width="2" stroke-linecap="round" stroke-linejoin="round"/>
<path d="M11.6667 17.4997C11.6667 20.7214 14.2783 23.333 17.5 23.333C20.7217 23.333 23.3333 20.7214 23.3333 17.4997C23.3333 14.278 20.7217 11.6664 17.5 11.6664C14.2783 11.6664 11.6667 14.278 11.6667 17.4997Z" stroke="white" stroke-width="2" stroke-linecap="round" stroke-linejoin="round"/>
</svg>
