<svg width="35" height="35" viewBox="0 0 35 35" fill="none" xmlns="http://www.w3.org/2000/svg">
<path d="M6.92473 11.149L6.44169 16.4623C6.37015 17.2492 6.33408 17.646 6.39957 18.0226C6.45808 18.3592 6.57494 18.683 6.74542 18.979C6.93696 19.3115 7.22006 19.5946 7.78304 20.1576L15.3306 27.7052C16.4784 28.853 17.0526 29.4271 17.7165 29.6428C18.3023 29.8332 18.9343 29.8336 19.5201 29.6433C20.186 29.4269 20.7647 28.8489 21.9198 27.6938L27.6945 21.9191C28.8495 20.7641 29.4261 20.1868 29.6425 19.5209C29.8328 18.9351 29.8317 18.3037 29.6414 17.7179C29.425 17.052 28.8492 16.4748 27.6942 15.3198L20.1652 7.79082C19.5971 7.2227 19.3129 6.93861 18.9789 6.7462C18.6829 6.57572 18.3591 6.45836 18.0226 6.39985C17.6428 6.33381 17.2425 6.37012 16.4424 6.44286L11.1489 6.92408C9.77113 7.04933 9.08181 7.11224 8.54271 7.41202C8.0674 7.67634 7.67556 8.06817 7.41125 8.54348C7.11295 9.0799 7.05074 9.76433 6.92674 11.1284L6.92473 11.149Z" stroke="#FAFAFA" stroke-width="2" stroke-linecap="round" stroke-linejoin="round"/>
<path d="M14.1649 14.1647C14.7344 13.5952 14.7344 12.6718 14.1649 12.1023C13.5954 11.5328 12.6713 11.5328 12.1018 12.1023C11.5323 12.6718 11.5318 13.595 12.1013 14.1645C12.6708 14.734 13.5954 14.7342 14.1649 14.1647Z" stroke="#FAFAFA" stroke-width="2" stroke-linecap="round" stroke-linejoin="round"/>
</svg>
