<svg width="34" height="34" viewBox="0 0 34 34" fill="none" xmlns="http://www.w3.org/2000/svg">
<path d="M21.2503 24.0833V25.5C21.2503 27.8472 19.3475 29.75 17.0003 29.75C14.6531 29.75 12.7503 27.8472 12.7503 25.5V24.0833M21.2503 24.0833H12.7503M21.2503 24.0833H26.3369C26.8788 24.0833 27.151 24.0833 27.3705 24.0093C27.7896 23.8679 28.1176 23.5388 28.259 23.1197C28.3333 22.8994 28.3333 22.6263 28.3333 22.0801C28.3333 21.8411 28.333 21.7216 28.3143 21.6076C28.279 21.3923 28.1954 21.1881 28.0681 21.0109C28.0009 20.9172 27.9154 20.8318 27.7469 20.6633L27.1951 20.1114C27.017 19.9334 26.917 19.6919 26.917 19.4401V14.1667C26.917 8.68983 22.4772 4.24999 17.0003 4.25C11.5235 4.25001 7.08366 8.68985 7.08366 14.1667V19.4401C7.08366 19.6919 6.98342 19.9334 6.80538 20.1114L6.25358 20.6632C6.08457 20.8322 5.99997 20.9171 5.93262 21.0109C5.80534 21.1882 5.72103 21.3923 5.68569 21.6076C5.66699 21.7216 5.66699 21.8411 5.66699 22.0801C5.66699 22.6263 5.66699 22.8993 5.7413 23.1196C5.88268 23.5388 6.21212 23.8679 6.63127 24.0093C6.8507 24.0833 7.12193 24.0833 7.66386 24.0833H12.7503" stroke="white" stroke-width="2" stroke-linecap="round" stroke-linejoin="round"/>
</svg>
