<svg width="53" height="37" viewBox="0 0 53 37" fill="none" xmlns="http://www.w3.org/2000/svg">
<path d="M48.7234 15.1729H47.7168V19.68H48.7234V15.1729Z" fill="#2B4570"/>
<path d="M4.98119 15.1729H3.97461V19.68H4.98119V15.1729Z" fill="#2B4570"/>
<path d="M7.29174 13.9644H6.28516V19.68H7.29174V13.9644Z" fill="#2B4570"/>
<path d="M39.5631 6.72705H38.5565V20.7576H37.3359V21.764H40.7837V20.7576H39.5631V6.72705Z" fill="#2B4570"/>
<path d="M14.1412 6.72705H13.1346V20.7576H11.9141V21.764H15.3598V20.7576H14.1412V6.72705Z" fill="#2B4570"/>
<path d="M25.698 16.4028H24.6914V19.6797H25.698V16.4028Z" fill="#2B4570"/>
<path d="M28.0085 16.4028H27.002V19.6797H28.0085V16.4028Z" fill="#2B4570"/>
<path d="M23.3855 15.1729H22.3789V19.68H23.3855V15.1729Z" fill="#2B4570"/>
<path d="M21.0749 13.9644H20.0684V19.68H21.0749V13.9644Z" fill="#2B4570"/>
<path d="M18.7624 12.4961H17.7559V19.6817H18.7624V12.4961Z" fill="#2B4570"/>
<path d="M16.4519 10.6519H15.4453V19.68H16.4519V10.6519Z" fill="#2B4570"/>
<path d="M46.4128 13.9644H45.4062V19.68H46.4128V13.9644Z" fill="#2B4570"/>
<path d="M44.1003 12.4961H43.0938V19.6817H44.1003V12.4961Z" fill="#2B4570"/>
<path d="M41.7898 10.6519H40.7832V19.68H41.7898V10.6519Z" fill="#2B4570"/>
<path d="M30.3171 15.1729H29.3105V19.68H30.3171V15.1729Z" fill="#2B4570"/>
<path d="M32.6296 13.9644H31.623V19.68H32.6296V13.9644Z" fill="#2B4570"/>
<path d="M34.9402 12.4961H33.9336V19.6817H34.9402V12.4961Z" fill="#2B4570"/>
<path d="M37.2527 10.6519H36.2461V19.68H37.2527V10.6519Z" fill="#2B4570"/>
<path d="M9.60228 12.4961H8.5957V19.6817H9.60228V12.4961Z" fill="#2B4570"/>
<path d="M11.9148 10.6519H10.9082V19.68H11.9148V10.6519Z" fill="#2B4570"/>
<path d="M5.47353 31.6665V26.0665H7.88953C8.24153 26.0665 8.55353 26.1465 8.82553 26.3065C9.10286 26.4665 9.32153 26.6852 9.48153 26.9625C9.64686 27.2398 9.72953 27.5518 9.72953 27.8985C9.72953 28.2612 9.64686 28.5865 9.48153 28.8745C9.32153 29.1572 9.10286 29.3812 8.82553 29.5465C8.55353 29.7118 8.24153 29.7945 7.88953 29.7945H6.83353V31.6665H5.47353ZM6.80953 28.6025H7.69753C7.81486 28.6025 7.92153 28.5732 8.01753 28.5145C8.11353 28.4558 8.19086 28.3758 8.24953 28.2745C8.3082 28.1732 8.33753 28.0558 8.33753 27.9225C8.33753 27.7838 8.3082 27.6665 8.24953 27.5705C8.19086 27.4745 8.11353 27.3998 8.01753 27.3465C7.92153 27.2932 7.81486 27.2665 7.69753 27.2665H6.80953V28.6025ZM10.7704 31.6665V26.0665H13.2904C13.6477 26.0665 13.9704 26.1438 14.2584 26.2985C14.5517 26.4532 14.7811 26.6665 14.9464 26.9385C15.1117 27.2052 15.1944 27.5092 15.1944 27.8505C15.1944 28.2025 15.1117 28.5198 14.9464 28.8025C14.7811 29.0798 14.5544 29.2985 14.2664 29.4585C13.9784 29.6185 13.6531 29.6985 13.2904 29.6985H12.0664V31.6665H10.7704ZM13.8744 31.6665L12.4504 29.1385L13.8424 28.9385L15.4264 31.6665H13.8744ZM12.0664 28.6585H13.1704C13.3091 28.6585 13.4291 28.6292 13.5304 28.5705C13.6371 28.5065 13.7171 28.4185 13.7704 28.3065C13.8291 28.1945 13.8584 28.0665 13.8584 27.9225C13.8584 27.7785 13.8264 27.6532 13.7624 27.5465C13.6984 27.4345 13.6051 27.3492 13.4824 27.2905C13.3651 27.2318 13.2211 27.2025 13.0504 27.2025H12.0664V28.6585ZM16.3876 31.6665V26.0665H20.2916V27.2265H17.7076V30.5065H20.3716V31.6665H16.3876ZM17.0276 29.3705V28.2665H19.9316V29.3705H17.0276ZM21.5438 31.6665V26.0665H22.7598L24.7998 29.3865L23.9278 29.3785L25.9918 26.0665H27.1598V31.6665H25.8398V29.9225C25.8398 29.4425 25.8505 29.0105 25.8718 28.6265C25.8985 28.2425 25.9412 27.8612 25.9998 27.4825L26.1518 27.8985L24.5998 30.3065H24.0718L22.5518 27.9145L22.7038 27.4825C22.7625 27.8398 22.8025 28.2078 22.8238 28.5865C22.8505 28.9598 22.8638 29.4052 22.8638 29.9225V31.6665H21.5438ZM28.4553 31.6665V30.5225H29.3993V27.2105H28.4553V26.0665H31.7113V27.2105H30.7593V30.5225H31.7113V31.6665H28.4553ZM33.0048 31.6665V26.0665H36.9088V27.2265H34.3248V30.5065H36.9888V31.6665H33.0048ZM33.6448 29.3705V28.2665H36.5488V29.3705H33.6448ZM38.161 31.6665V26.0665H40.681C41.0384 26.0665 41.361 26.1438 41.649 26.2985C41.9424 26.4532 42.1717 26.6665 42.337 26.9385C42.5024 27.2052 42.585 27.5092 42.585 27.8505C42.585 28.2025 42.5024 28.5198 42.337 28.8025C42.1717 29.0798 41.945 29.2985 41.657 29.4585C41.369 29.6185 41.0437 29.6985 40.681 29.6985H39.457V31.6665H38.161ZM41.265 31.6665L39.841 29.1385L41.233 28.9385L42.817 31.6665H41.265ZM39.457 28.6585H40.561C40.6997 28.6585 40.8197 28.6292 40.921 28.5705C41.0277 28.5065 41.1077 28.4185 41.161 28.3065C41.2197 28.1945 41.249 28.0665 41.249 27.9225C41.249 27.7785 41.217 27.6532 41.153 27.5465C41.089 27.4345 40.9957 27.3492 40.873 27.2905C40.7557 27.2318 40.6117 27.2025 40.441 27.2025H39.457V28.6585ZM43.7782 31.6665V26.0665H47.6822V27.2265H45.0982V30.5065H47.7622V31.6665H43.7782ZM44.4182 29.3705V28.2665H47.3222V29.3705H44.4182Z" fill="#2B4570"/>
<path d="M10.2359 2.80322H3.85828C3.28395 2.80322 2.81836 3.05421 2.81836 3.36383C2.81836 3.67344 3.28395 3.92443 3.85828 3.92443H10.2359C10.8102 3.92443 11.2758 3.67344 11.2758 3.36383C11.2758 3.05421 10.8102 2.80322 10.2359 2.80322Z" fill="#2B4570"/>
<path d="M23.2726 2.80322H17.3202C16.7842 2.80322 16.3496 3.05421 16.3496 3.36383C16.3496 3.67344 16.7842 3.92443 17.3202 3.92443H23.2726C23.8087 3.92443 24.2432 3.67344 24.2432 3.36383C24.2432 3.05421 23.8087 2.80322 23.2726 2.80322Z" fill="#2B4570"/>
<path d="M36.2414 2.80322H30.289C29.7529 2.80322 29.3184 3.05421 29.3184 3.36383C29.3184 3.67344 29.7529 3.92443 30.289 3.92443H36.2414C36.7774 3.92443 37.212 3.67344 37.212 3.36383C37.212 3.05421 36.7774 2.80322 36.2414 2.80322Z" fill="#2B4570"/>
<path d="M49.2101 2.80322H43.2577C42.7217 2.80322 42.2871 3.05421 42.2871 3.36383C42.2871 3.67344 42.7217 3.92443 43.2577 3.92443H49.2101C49.7462 3.92443 50.1807 3.67344 50.1807 3.36383C50.1807 3.05421 49.7462 2.80322 49.2101 2.80322Z" fill="#2B4570"/>
</svg>
