<svg width="268" height="187" viewBox="0 0 268 187" fill="none" xmlns="http://www.w3.org/2000/svg">
<g clip-path="url(#clip0_2278_6543)">
<path d="M267.48 186.76H0V127.29H1.5C20.2 127.29 35.41 112.08 35.41 93.38C35.41 74.68 20.2 59.47 1.5 59.47H0V0H267.48V59.47H265.98C247.28 59.47 232.07 74.68 232.07 93.38C232.07 112.08 247.28 127.29 265.98 127.29H267.48V186.76ZM3 183.76H264.48V130.26C244.82 129.47 229.07 113.23 229.07 93.38C229.07 73.53 244.82 57.29 264.48 56.5V3H3V56.5C22.66 57.29 38.41 73.53 38.41 93.38C38.41 113.23 22.66 129.47 3 130.26V183.76Z" fill="#2B4570"/>
<path d="M246.66 141.26H241.58V164.01H246.66V141.26Z" fill="#2B4570"/>
<path d="M25.9003 141.26H20.8203V164.01H25.9003V141.26Z" fill="#2B4570"/>
<path d="M37.5605 135.16H32.4805V164.01H37.5605V135.16Z" fill="#2B4570"/>
<path d="M200.429 98.6299H195.349V169.45H189.189V174.53H206.589V169.45H200.429V98.6299Z" fill="#2B4570"/>
<path d="M72.1306 98.6299H67.0506V169.45H60.8906V174.53H78.2806V169.45H72.1306V98.6299Z" fill="#2B4570"/>
<path d="M130.451 147.47H125.371V164.01H130.451V147.47Z" fill="#2B4570"/>
<path d="M142.111 147.47H137.031V164.01H142.111V147.47Z" fill="#2B4570"/>
<path d="M118.781 141.26H113.701V164.01H118.781V141.26Z" fill="#2B4570"/>
<path d="M107.121 135.16H102.041V164.01H107.121V135.16Z" fill="#2B4570"/>
<path d="M95.4511 127.75H90.3711V164.02H95.4511V127.75Z" fill="#2B4570"/>
<path d="M83.7909 118.44H78.7109V164.01H83.7909V118.44Z" fill="#2B4570"/>
<path d="M235 135.16H229.92V164.01H235V135.16Z" fill="#2B4570"/>
<path d="M223.33 127.75H218.25V164.02H223.33V127.75Z" fill="#2B4570"/>
<path d="M211.67 118.44H206.59V164.01H211.67V118.44Z" fill="#2B4570"/>
<path d="M153.769 141.26H148.689V164.01H153.769V141.26Z" fill="#2B4570"/>
<path d="M165.439 135.16H160.359V164.01H165.439V135.16Z" fill="#2B4570"/>
<path d="M177.1 127.75H172.02V164.02H177.1V127.75Z" fill="#2B4570"/>
<path d="M188.769 118.44H183.689V164.01H188.769V118.44Z" fill="#2B4570"/>
<path d="M49.2206 127.75H44.1406V164.02H49.2206V127.75Z" fill="#2B4570"/>
<path d="M60.8905 118.44H55.8105V164.01H60.8905V118.44Z" fill="#2B4570"/>
<path d="M32.8309 28.9302H18.9709C17.7228 28.9302 16.7109 29.942 16.7109 31.1902C16.7109 32.4383 17.7228 33.4502 18.9709 33.4502H32.8309C34.0791 33.4502 35.0909 32.4383 35.0909 31.1902C35.0909 29.942 34.0791 28.9302 32.8309 28.9302Z" fill="#2B4570"/>
<path d="M62.7001 28.9302H48.8401C47.5919 28.9302 46.5801 29.942 46.5801 31.1902C46.5801 32.4383 47.5919 33.4502 48.8401 33.4502H62.7001C63.9482 33.4502 64.9601 32.4383 64.9601 31.1902C64.9601 29.942 63.9482 28.9302 62.7001 28.9302Z" fill="#2B4570"/>
<path d="M92.5692 28.9302H78.7092C77.4611 28.9302 76.4492 29.942 76.4492 31.1902C76.4492 32.4383 77.4611 33.4502 78.7092 33.4502H92.5692C93.8174 33.4502 94.8292 32.4383 94.8292 31.1902C94.8292 29.942 93.8174 28.9302 92.5692 28.9302Z" fill="#2B4570"/>
<path d="M122.44 28.9302H108.58C107.332 28.9302 106.32 29.942 106.32 31.1902C106.32 32.4383 107.332 33.4502 108.58 33.4502H122.44C123.688 33.4502 124.7 32.4383 124.7 31.1902C124.7 29.942 123.688 28.9302 122.44 28.9302Z" fill="#2B4570"/>
<path d="M152.319 28.9302H138.459C137.211 28.9302 136.199 29.942 136.199 31.1902C136.199 32.4383 137.211 33.4502 138.459 33.4502H152.319C153.567 33.4502 154.579 32.4383 154.579 31.1902C154.579 29.942 153.567 28.9302 152.319 28.9302Z" fill="#2B4570"/>
<path d="M182.19 28.9302H168.33C167.082 28.9302 166.07 29.942 166.07 31.1902C166.07 32.4383 167.082 33.4502 168.33 33.4502H182.19C183.438 33.4502 184.45 32.4383 184.45 31.1902C184.45 29.942 183.438 28.9302 182.19 28.9302Z" fill="#2B4570"/>
<path d="M241.931 28.9302H228.071C226.822 28.9302 225.811 29.942 225.811 31.1902C225.811 32.4383 226.822 33.4502 228.071 33.4502H241.931C243.179 33.4502 244.191 32.4383 244.191 31.1902C244.191 29.942 243.179 28.9302 241.931 28.9302Z" fill="#2B4570"/>
<path d="M212.059 28.9302H198.199C196.951 28.9302 195.939 29.942 195.939 31.1902C195.939 32.4383 196.951 33.4502 198.199 33.4502H212.059C213.308 33.4502 214.319 32.4383 214.319 31.1902C214.319 29.942 213.308 28.9302 212.059 28.9302Z" fill="#2B4570"/>
<path d="M42.0092 87V62.5H52.5792C54.1192 62.5 55.4842 62.85 56.6742 63.55C57.8875 64.25 58.8442 65.2067 59.5442 66.42C60.2675 67.6333 60.6292 68.9983 60.6292 70.515C60.6292 72.1017 60.2675 73.525 59.5442 74.785C58.8442 76.0217 57.8875 77.0017 56.6742 77.725C55.4842 78.4483 54.1192 78.81 52.5792 78.81H47.9592V87H42.0092ZM47.8542 73.595H51.7392C52.2525 73.595 52.7192 73.4667 53.1392 73.21C53.5592 72.9533 53.8975 72.6033 54.1542 72.16C54.4109 71.7167 54.5392 71.2033 54.5392 70.62C54.5392 70.0133 54.4109 69.5 54.1542 69.08C53.8975 68.66 53.5592 68.3333 53.1392 68.1C52.7192 67.8667 52.2525 67.75 51.7392 67.75H47.8542V73.595ZM65.183 87V62.5H76.208C77.7714 62.5 79.183 62.8383 80.443 63.515C81.7264 64.1917 82.7297 65.125 83.453 66.315C84.1764 67.4817 84.538 68.8117 84.538 70.305C84.538 71.845 84.1764 73.2333 83.453 74.47C82.7297 75.6833 81.738 76.64 80.478 77.34C79.218 78.04 77.7947 78.39 76.208 78.39H70.853V87H65.183ZM78.763 87L72.533 75.94L78.623 75.065L85.553 87H78.763ZM70.853 73.84H75.683C76.2897 73.84 76.8147 73.7117 77.258 73.455C77.7247 73.175 78.0747 72.79 78.308 72.3C78.5647 71.81 78.693 71.25 78.693 70.62C78.693 69.99 78.553 69.4417 78.273 68.975C77.993 68.485 77.5847 68.1117 77.048 67.855C76.5347 67.5983 75.9047 67.47 75.158 67.47H70.853V73.84ZM89.7582 87V62.5H106.838V67.575H95.5332V81.925H107.188V87H89.7582ZM92.5582 76.955V72.125H105.263V76.955H92.5582ZM112.317 87V62.5H117.637L126.562 77.025L122.747 76.99L131.777 62.5H136.887V87H131.112V79.37C131.112 77.27 131.158 75.38 131.252 73.7C131.368 72.02 131.555 70.3517 131.812 68.695L132.477 70.515L125.687 81.05H123.377L116.727 70.585L117.392 68.695C117.648 70.2583 117.823 71.8683 117.917 73.525C118.033 75.1583 118.092 77.1067 118.092 79.37V87H112.317ZM142.554 87V81.995H146.684V67.505H142.554V62.5H156.799V67.505H152.634V81.995H156.799V87H142.554ZM162.458 87V62.5H179.538V67.575H168.233V81.925H179.888V87H162.458ZM165.258 76.955V72.125H177.963V76.955H165.258ZM185.017 87V62.5H196.042C197.605 62.5 199.017 62.8383 200.277 63.515C201.56 64.1917 202.564 65.125 203.287 66.315C204.01 67.4817 204.372 68.8117 204.372 70.305C204.372 71.845 204.01 73.2333 203.287 74.47C202.564 75.6833 201.572 76.64 200.312 77.34C199.052 78.04 197.629 78.39 196.042 78.39H190.687V87H185.017ZM198.597 87L192.367 75.94L198.457 75.065L205.387 87H198.597ZM190.687 73.84H195.517C196.124 73.84 196.649 73.7117 197.092 73.455C197.559 73.175 197.909 72.79 198.142 72.3C198.399 71.81 198.527 71.25 198.527 70.62C198.527 69.99 198.387 69.4417 198.107 68.975C197.827 68.485 197.419 68.1117 196.882 67.855C196.369 67.5983 195.739 67.47 194.992 67.47H190.687V73.84ZM209.592 87V62.5H226.672V67.575H215.367V81.925H227.022V87H209.592ZM212.392 76.955V72.125H225.097V76.955H212.392Z" fill="#2B4570"/>
</g>
<defs>
<clipPath id="clip0_2278_6543">
<rect width="267.48" height="186.76" fill="white"/>
</clipPath>
</defs>
</svg>
