<svg width="210" height="125" viewBox="0 0 210 125" fill="none" xmlns="http://www.w3.org/2000/svg">
<g clip-path="url(#clip0_2278_6481)">
<path d="M193.309 55.5327H189.32V70.7595H193.309V55.5327Z" fill="#2B4570"/>
<path d="M19.9883 55.5327H16V70.7595H19.9883V55.5327Z" fill="#2B4570"/>
<path d="M29.1426 51.4497H25.1543V70.7592H29.1426V51.4497Z" fill="#2B4570"/>
<path d="M157.012 27H153.024V74.4004H148.188V77.8005H161.848V74.4004H157.012V27Z" fill="#2B4570"/>
<path d="M56.2836 27H52.2952V74.4004H47.459V77.8005H61.112V74.4004H56.2836V27Z" fill="#2B4570"/>
<path d="M102.07 59.689H98.082V70.7593H102.07V59.689Z" fill="#2B4570"/>
<path d="M111.225 59.689H107.236V70.7593H111.225V59.689Z" fill="#2B4570"/>
<path d="M92.9083 55.5327H88.9199V70.7595H92.9083V55.5327Z" fill="#2B4570"/>
<path d="M83.754 51.4497H79.7656V70.7592H83.754V51.4497Z" fill="#2B4570"/>
<path d="M74.5918 46.4902H70.6035V70.766H74.5918V46.4902Z" fill="#2B4570"/>
<path d="M65.4376 40.2588H61.4492V70.7592H65.4376V40.2588Z" fill="#2B4570"/>
<path d="M184.154 51.4497H180.166V70.7592H184.154V51.4497Z" fill="#2B4570"/>
<path d="M174.992 46.4902H171.004V70.766H174.992V46.4902Z" fill="#2B4570"/>
<path d="M165.838 40.2588H161.85V70.7592H165.838V40.2588Z" fill="#2B4570"/>
<path d="M120.379 55.5327H116.391V70.7595H120.379V55.5327Z" fill="#2B4570"/>
<path d="M129.541 51.4497H125.553V70.7592H129.541V51.4497Z" fill="#2B4570"/>
<path d="M138.695 46.4902H134.707V70.766H138.695V46.4902Z" fill="#2B4570"/>
<path d="M147.859 40.2588H143.871V70.7592H147.859V40.2588Z" fill="#2B4570"/>
<path d="M38.2969 46.4902H34.3086V70.766H38.2969V46.4902Z" fill="#2B4570"/>
<path d="M47.459 40.2588H43.4707V70.7592H47.459V40.2588Z" fill="#2B4570"/>
<path d="M39.2923 107V89.5H46.8423C47.9423 89.5 48.9173 89.75 49.7673 90.25C50.634 90.75 51.3173 91.4333 51.8173 92.3C52.334 93.1667 52.5923 94.1417 52.5923 95.225C52.5923 96.3583 52.334 97.375 51.8173 98.275C51.3173 99.1583 50.634 99.8583 49.7673 100.375C48.9173 100.892 47.9423 101.15 46.8423 101.15H43.5423V107H39.2923ZM43.4673 97.425H46.2423C46.609 97.425 46.9423 97.3333 47.2423 97.15C47.5423 96.9667 47.784 96.7167 47.9673 96.4C48.1506 96.0833 48.2423 95.7167 48.2423 95.3C48.2423 94.8667 48.1506 94.5 47.9673 94.2C47.784 93.9 47.5423 93.6667 47.2423 93.5C46.9423 93.3333 46.609 93.25 46.2423 93.25H43.4673V97.425ZM55.845 107V89.5H63.72C64.8367 89.5 65.845 89.7417 66.745 90.225C67.6617 90.7083 68.3784 91.375 68.895 92.225C69.4117 93.0583 69.67 94.0083 69.67 95.075C69.67 96.175 69.4117 97.1667 68.895 98.05C68.3784 98.9167 67.67 99.6 66.77 100.1C65.87 100.6 64.8534 100.85 63.72 100.85H59.895V107H55.845ZM65.545 107L61.095 99.1L65.445 98.475L70.395 107H65.545ZM59.895 97.6H63.345C63.7784 97.6 64.1534 97.5083 64.47 97.325C64.8034 97.125 65.0534 96.85 65.22 96.5C65.4034 96.15 65.495 95.75 65.495 95.3C65.495 94.85 65.395 94.4583 65.195 94.125C64.995 93.775 64.7034 93.5083 64.32 93.325C63.9534 93.1417 63.5034 93.05 62.97 93.05H59.895V97.6ZM73.3987 107V89.5H85.5987V93.125H77.5237V103.375H85.8487V107H73.3987ZM75.3987 99.825V96.375H84.4737V99.825H75.3987ZM89.512 107V89.5H93.312L99.687 99.875L96.962 99.85L103.412 89.5H107.062V107H102.937V101.55C102.937 100.05 102.97 98.7 103.037 97.5C103.12 96.3 103.254 95.1083 103.437 93.925L103.912 95.225L99.062 102.75H97.412L92.662 95.275L93.137 93.925C93.3203 95.0417 93.4453 96.1917 93.512 97.375C93.5953 98.5417 93.637 99.9333 93.637 101.55V107H89.512ZM111.11 107V103.425H114.06V93.075H111.11V89.5H121.285V93.075H118.31V103.425H121.285V107H111.11ZM125.327 107V89.5H137.527V93.125H129.452V103.375H137.777V107H125.327ZM127.327 99.825V96.375H136.402V99.825H127.327ZM141.441 107V89.5H149.316C150.432 89.5 151.441 89.7417 152.341 90.225C153.257 90.7083 153.974 91.375 154.491 92.225C155.007 93.0583 155.266 94.0083 155.266 95.075C155.266 96.175 155.007 97.1667 154.491 98.05C153.974 98.9167 153.266 99.6 152.366 100.1C151.466 100.6 150.449 100.85 149.316 100.85H145.491V107H141.441ZM151.141 107L146.691 99.1L151.041 98.475L155.991 107H151.141ZM145.491 97.6H148.941C149.374 97.6 149.749 97.5083 150.066 97.325C150.399 97.125 150.649 96.85 150.816 96.5C150.999 96.15 151.091 95.75 151.091 95.3C151.091 94.85 150.991 94.4583 150.791 94.125C150.591 93.775 150.299 93.5083 149.916 93.325C149.549 93.1417 149.099 93.05 148.566 93.05H145.491V97.6ZM158.994 107V89.5H171.194V93.125H163.119V103.375H171.444V107H158.994ZM160.994 99.825V96.375H170.069V99.825H160.994Z" fill="#2B4570"/>
<path d="M37.12 15H23.26C22.0118 15 21 16.0118 21 17.26C21 18.5082 22.0118 19.52 23.26 19.52H37.12C38.3682 19.52 39.38 18.5082 39.38 17.26C39.38 16.0118 38.3682 15 37.12 15Z" fill="#2B4570"/>
<path d="M66.9911 15H53.1311C51.8829 15 50.8711 16.0118 50.8711 17.26C50.8711 18.5082 51.8829 19.52 53.1311 19.52H66.9911C68.2393 19.52 69.2511 18.5082 69.2511 17.26C69.2511 16.0118 68.2393 15 66.9911 15Z" fill="#2B4570"/>
<path d="M96.87 15H83.01C81.7618 15 80.75 16.0118 80.75 17.26C80.75 18.5082 81.7618 19.52 83.01 19.52H96.87C98.1182 19.52 99.13 18.5082 99.13 17.26C99.13 16.0118 98.1182 15 96.87 15Z" fill="#2B4570"/>
<path d="M126.741 15H112.881C111.633 15 110.621 16.0118 110.621 17.26C110.621 18.5082 111.633 19.52 112.881 19.52H126.741C127.989 19.52 129.001 18.5082 129.001 17.26C129.001 16.0118 127.989 15 126.741 15Z" fill="#2B4570"/>
<path d="M186.479 15H172.619C171.371 15 170.359 16.0118 170.359 17.26C170.359 18.5082 171.371 19.52 172.619 19.52H186.479C187.728 19.52 188.739 18.5082 188.739 17.26C188.739 16.0118 187.728 15 186.479 15Z" fill="#2B4570"/>
<path d="M156.61 15H142.75C141.502 15 140.49 16.0118 140.49 17.26C140.49 18.5082 141.502 19.52 142.75 19.52H156.61C157.858 19.52 158.87 18.5082 158.87 17.26C158.87 16.0118 157.858 15 156.61 15Z" fill="#2B4570"/>
</g>
<defs>
<clipPath id="clip0_2278_6481">
<rect width="210" height="125" fill="white"/>
</clipPath>
</defs>
</svg>
