<svg width="94" height="66" viewBox="0 0 94 66" fill="none" xmlns="http://www.w3.org/2000/svg">
<path d="M86.4181 27.0654H84.6328V35.1052H86.4181V27.0654Z" fill="#2B4570"/>
<path d="M8.83604 27.0654H7.05078V35.1052H8.83604V27.0654Z" fill="#2B4570"/>
<path d="M12.9337 24.9097H11.1484V35.1051H12.9337V24.9097Z" fill="#2B4570"/>
<path d="M70.1708 12H68.3855V37.0274H66.2207V38.8227H72.3356V37.0274H70.1708V12Z" fill="#2B4570"/>
<path d="M25.0829 12H23.2976V37.0274H21.1328V38.8227H27.2441V37.0274H25.0829V12Z" fill="#2B4570"/>
<path d="M45.5782 29.2598H43.793V35.1049H45.5782V29.2598Z" fill="#2B4570"/>
<path d="M49.6759 29.2598H47.8906V35.1049H49.6759V29.2598Z" fill="#2B4570"/>
<path d="M41.4767 27.0654H39.6914V35.1052H41.4767V27.0654Z" fill="#2B4570"/>
<path d="M37.379 24.9097H35.5938V35.1051H37.379V24.9097Z" fill="#2B4570"/>
<path d="M33.2774 22.291H31.4922V35.1086H33.2774V22.291Z" fill="#2B4570"/>
<path d="M29.1798 19.001H27.3945V35.1052H29.1798V19.001Z" fill="#2B4570"/>
<path d="M82.3204 24.9097H80.5352V35.1051H82.3204V24.9097Z" fill="#2B4570"/>
<path d="M78.2188 22.291H76.4336V35.1086H78.2188V22.291Z" fill="#2B4570"/>
<path d="M74.1212 19.001H72.3359V35.1052H74.1212V19.001Z" fill="#2B4570"/>
<path d="M53.7735 27.0654H51.9883V35.1052H53.7735V27.0654Z" fill="#2B4570"/>
<path d="M57.8751 24.9097H56.0898V35.1051H57.8751V24.9097Z" fill="#2B4570"/>
<path d="M61.9728 22.291H60.1875V35.1086H61.9728V22.291Z" fill="#2B4570"/>
<path d="M66.0724 19.001H64.2871V35.1052H66.0724V19.001Z" fill="#2B4570"/>
<path d="M17.0313 22.291H15.2461V35.1086H17.0313V22.291Z" fill="#2B4570"/>
<path d="M21.1329 19.001H19.3477V35.1052H21.1329V19.001Z" fill="#2B4570"/>
<path d="M7.57537 56V45.5H12.1054C12.7654 45.5 13.3504 45.65 13.8604 45.95C14.3804 46.25 14.7904 46.66 15.0904 47.18C15.4004 47.7 15.5554 48.285 15.5554 48.935C15.5554 49.615 15.4004 50.225 15.0904 50.765C14.7904 51.295 14.3804 51.715 13.8604 52.025C13.3504 52.335 12.7654 52.49 12.1054 52.49H10.1254V56H7.57537ZM10.0804 50.255H11.7454C11.9654 50.255 12.1654 50.2 12.3454 50.09C12.5254 49.98 12.6704 49.83 12.7804 49.64C12.8904 49.45 12.9454 49.23 12.9454 48.98C12.9454 48.72 12.8904 48.5 12.7804 48.32C12.6704 48.14 12.5254 48 12.3454 47.9C12.1654 47.8 11.9654 47.75 11.7454 47.75H10.0804V50.255ZM17.507 56V45.5H22.232C22.902 45.5 23.507 45.645 24.047 45.935C24.597 46.225 25.027 46.625 25.337 47.135C25.647 47.635 25.802 48.205 25.802 48.845C25.802 49.505 25.647 50.1 25.337 50.63C25.027 51.15 24.602 51.56 24.062 51.86C23.522 52.16 22.912 52.31 22.232 52.31H19.937V56H17.507ZM23.327 56L20.657 51.26L23.267 50.885L26.237 56H23.327ZM19.937 50.36H22.007C22.267 50.36 22.492 50.305 22.682 50.195C22.882 50.075 23.032 49.91 23.132 49.7C23.242 49.49 23.297 49.25 23.297 48.98C23.297 48.71 23.237 48.475 23.117 48.275C22.997 48.065 22.822 47.905 22.592 47.795C22.372 47.685 22.102 47.63 21.782 47.63H19.937V50.36ZM28.0392 56V45.5H35.3592V47.675H30.5142V53.825H35.5092V56H28.0392ZM29.2392 51.695V49.625H34.6842V51.695H29.2392ZM37.7072 56V45.5H39.9872L43.8122 51.725L42.1772 51.71L46.0472 45.5H48.2372V56H45.7622V52.73C45.7622 51.83 45.7822 51.02 45.8222 50.3C45.8722 49.58 45.9522 48.865 46.0622 48.155L46.3472 48.935L43.4372 53.45H42.4472L39.5972 48.965L39.8822 48.155C39.9922 48.825 40.0672 49.515 40.1072 50.225C40.1572 50.925 40.1822 51.76 40.1822 52.73V56H37.7072ZM50.6662 56V53.855H52.4362V47.645H50.6662V45.5H56.7712V47.645H54.9862V53.855H56.7712V56H50.6662ZM59.1965 56V45.5H66.5165V47.675H61.6715V53.825H66.6665V56H59.1965ZM60.3965 51.695V49.625H65.8415V51.695H60.3965ZM68.8644 56V45.5H73.5894C74.2594 45.5 74.8644 45.645 75.4044 45.935C75.9544 46.225 76.3844 46.625 76.6944 47.135C77.0044 47.635 77.1594 48.205 77.1594 48.845C77.1594 49.505 77.0044 50.1 76.6944 50.63C76.3844 51.15 75.9594 51.56 75.4194 51.86C74.8794 52.16 74.2694 52.31 73.5894 52.31H71.2944V56H68.8644ZM74.6844 56L72.0144 51.26L74.6244 50.885L77.5944 56H74.6844ZM71.2944 50.36H73.3644C73.6244 50.36 73.8494 50.305 74.0394 50.195C74.2394 50.075 74.3894 49.91 74.4894 49.7C74.5994 49.49 74.6544 49.25 74.6544 48.98C74.6544 48.71 74.5944 48.475 74.4744 48.275C74.3544 48.065 74.1794 47.905 73.9494 47.795C73.7294 47.685 73.4594 47.63 73.1394 47.63H71.2944V50.36ZM79.3967 56V45.5H86.7167V47.675H81.8717V53.825H86.8667V56H79.3967ZM80.5967 51.695V49.625H86.0417V51.695H80.5967Z" fill="#2B4570"/>
<path d="M18.1556 5H6.8444C5.82576 5 5 5.44772 5 6C5 6.55228 5.82576 7 6.8444 7H18.1556C19.1742 7 20 6.55228 20 6C20 5.44772 19.1742 5 18.1556 5Z" fill="#2B4570"/>
<path d="M41.2786 5H30.7214C29.7707 5 29 5.44772 29 6C29 6.55228 29.7707 7 30.7214 7H41.2786C42.2293 7 43 6.55228 43 6C43 5.44772 42.2293 5 41.2786 5Z" fill="#2B4570"/>
<path d="M64.2786 5H53.7214C52.7707 5 52 5.44772 52 6C52 6.55228 52.7707 7 53.7214 7H64.2786C65.2293 7 66 6.55228 66 6C66 5.44772 65.2293 5 64.2786 5Z" fill="#2B4570"/>
<path d="M87.2786 5H76.7214C75.7707 5 75 5.44772 75 6C75 6.55228 75.7707 7 76.7214 7H87.2786C88.2293 7 89 6.55228 89 6C89 5.44772 88.2293 5 87.2786 5Z" fill="#2B4570"/>
</svg>
