<svg width="26" height="29" viewBox="0 0 26 29" fill="none" xmlns="http://www.w3.org/2000/svg">
<g clip-path="url(#clip0_2146_9369)">
<path d="M19.5007 7.90267C20.6973 7.90267 21.6673 6.82069 21.6673 5.486C21.6673 4.15131 20.6973 3.06934 19.5007 3.06934C18.304 3.06934 17.334 4.15131 17.334 5.486C17.334 6.82069 18.304 7.90267 19.5007 7.90267Z" fill="#212325"/>
<path d="M16.2493 20.5413H14.0827C14.0827 22.5351 12.6202 24.1663 10.8327 24.1663C9.04518 24.1663 7.58268 22.5351 7.58268 20.5413C7.58268 18.5476 9.04518 16.9163 10.8327 16.9163V14.4997C7.84268 14.4997 5.41602 17.2063 5.41602 20.5413C5.41602 23.8763 7.84268 26.583 10.8327 26.583C13.8227 26.583 16.2493 23.8763 16.2493 20.5413ZM19.4993 16.3122H17.4843L19.2935 11.8776C19.9543 10.2705 18.8927 8.45801 17.2893 8.45801H11.656C10.7785 8.45801 9.98768 9.02592 9.63018 9.90801L9.32685 10.8263C9.09935 11.503 9.44602 12.2401 10.0635 12.4334C10.5943 12.6026 11.1468 12.3005 11.3635 11.7326L11.6885 10.8747H14.0827L12.1002 15.8288C11.4502 17.4359 12.5227 19.333 14.1044 19.333H19.4993V24.1663C19.4993 24.8309 19.9868 25.3747 20.5827 25.3747C21.1785 25.3747 21.666 24.8309 21.666 24.1663V18.7288C21.666 17.3997 20.691 16.3122 19.4993 16.3122Z" fill="#212325"/>
</g>
<defs>
<clipPath id="clip0_2146_9369">
<rect width="26" height="29" fill="white"/>
</clipPath>
</defs>
</svg>
