<svg width="24" height="26" viewBox="0 0 24 26" fill="none" xmlns="http://www.w3.org/2000/svg">
<path fill-rule="evenodd" clip-rule="evenodd" d="M12 2.16699C14.6888 2.16699 16.8818 4.46616 16.9954 7.34869L17 7.58366V10.8337C18.6569 10.8337 20 12.2887 20 14.0837V20.5837C20 22.3786 18.6569 23.8337 17 23.8337H7C5.34315 23.8337 4 22.3786 4 20.5837V14.0837C4 12.2887 5.34315 10.8337 7 10.8337H15V7.58366C15 5.85284 13.7511 4.43803 12.1763 4.33918L12 4.33366C10.3431 4.33366 9 5.78873 9 7.58366C9 8.18197 8.55228 8.66699 8 8.66699C7.44772 8.66699 7 8.18197 7 7.58366C7 4.59212 9.23858 2.16699 12 2.16699ZM17 13.0003H7C6.44772 13.0003 6 13.4854 6 14.0837V20.5837C6 21.182 6.44772 21.667 7 21.667H17C17.5523 21.667 18 21.182 18 20.5837V14.0837C18 13.4854 17.5523 13.0003 17 13.0003Z" fill="#212325"/>
</svg>
