<svg width="26" height="26" viewBox="0 0 26 26" fill="none" xmlns="http://www.w3.org/2000/svg">
<path fill-rule="evenodd" clip-rule="evenodd" d="M12.9993 2.16699C18.9824 2.16699 23.8327 7.01724 23.8327 13.0003C23.8327 18.9834 18.9824 23.8337 12.9993 23.8337C7.01626 23.8337 2.16602 18.9834 2.16602 13.0003C2.16602 7.01724 7.01626 2.16699 12.9993 2.16699ZM12.9993 4.33366C8.21288 4.33366 4.33268 8.21386 4.33268 13.0003C4.33268 17.7868 8.21288 21.667 12.9993 21.667C17.7858 21.667 21.666 17.7868 21.666 13.0003C21.666 8.21386 17.7858 4.33366 12.9993 4.33366ZM12.9993 17.3337C13.5977 17.3337 14.0827 17.8187 14.0827 18.417C14.0827 19.0153 13.5977 19.5003 12.9993 19.5003C12.401 19.5003 11.916 19.0153 11.916 18.417C11.916 17.8187 12.401 17.3337 12.9993 17.3337ZM12.9993 6.50033C15.3926 6.50033 17.3327 8.44042 17.3327 10.8337C17.3327 12.778 16.0521 14.4233 14.2883 14.9721L14.0827 15.0305V15.167C14.0827 15.7653 13.5977 16.2503 12.9993 16.2503C12.4438 16.2503 11.9859 15.8321 11.9233 15.2933L11.916 15.167V14.0837C11.916 13.5281 12.3342 13.0702 12.873 13.0076L13.161 12.9944C14.2821 12.9117 15.166 11.9759 15.166 10.8337C15.166 9.63704 14.196 8.66699 12.9993 8.66699C11.8027 8.66699 10.8327 9.63704 10.8327 10.8337C10.8327 11.432 10.3477 11.917 9.74935 11.917C9.15104 11.917 8.66602 11.432 8.66602 10.8337C8.66602 8.44042 10.6061 6.50033 12.9993 6.50033Z" fill="#212325"/>
</svg>
