<svg width="365" height="362" viewBox="0 0 365 362" fill="none" xmlns="http://www.w3.org/2000/svg">
<path d="M187.526 326.576C141.516 275.846 73.1062 277.656 27.2962 264.406C-30.9738 247.546 12.0662 130.966 81.1362 133.666C118.576 135.126 175.346 134.306 186.886 107.386C198.426 80.4659 207.086 17.0259 246.486 5.48589C339.486 -21.7641 399.036 56.0059 342.626 161.226C302.096 236.816 236.876 203.526 236.236 227.236C235.596 250.946 310.936 244.396 333.016 265.686C386.866 317.626 265.846 412.916 187.526 326.576Z" fill="#186EBB"/>
<path d="M251.977 37.9961H132.097C128.06 37.9961 124.787 41.2689 124.787 45.3061V293.686C124.787 297.723 128.06 300.996 132.097 300.996H251.977C256.014 300.996 259.287 297.723 259.287 293.686V45.3061C259.287 41.2689 256.014 37.9961 251.977 37.9961Z" fill="white" stroke="#305C8C" stroke-width="3.67" stroke-miterlimit="10"/>
<path d="M200.537 42.4961H183.537C181.88 42.4961 180.537 43.8392 180.537 45.4961C180.537 47.1529 181.88 48.4961 183.537 48.4961H200.537C202.194 48.4961 203.537 47.1529 203.537 45.4961C203.537 43.8392 202.194 42.4961 200.537 42.4961Z" fill="#305C8C"/>
<path d="M199.727 182.946H184.347C176.858 182.946 170.787 189.017 170.787 196.506V199.176C170.787 206.665 176.858 212.736 184.347 212.736H199.727C207.216 212.736 213.287 206.665 213.287 199.176V196.506C213.287 189.017 207.216 182.946 199.727 182.946Z" fill="#578CBC"/>
<path d="M200.717 95.2767C200.717 90.4828 196.831 86.5967 192.037 86.5967C187.244 86.5967 183.357 90.4828 183.357 95.2767V97.5867C183.357 102.381 187.244 106.267 192.037 106.267C196.831 106.267 200.717 102.381 200.717 97.5867V95.2767Z" fill="#578CBC"/>
<path d="M251.657 190.466C239.947 172.496 231.057 151.296 225.567 126.216C225.347 123.506 223.697 117.256 223.527 117.056C218.667 104.096 206.177 94.8765 191.527 94.8765C176.877 94.8765 164.347 104.126 159.497 117.106C159.337 117.306 157.427 124.826 157.367 128.416C152.877 151.766 145.457 172.966 132.597 190.206C130.247 193.356 132.487 197.826 136.407 197.826H247.697C251.487 197.826 253.727 193.626 251.667 190.446L251.657 190.466Z" fill="#305C8C"/>
<path d="M132.186 68.9961H29.2961C24.5962 68.9961 20.7861 72.8062 20.7861 77.5061V101.486C20.7861 106.186 24.5962 109.996 29.2961 109.996H132.186C136.886 109.996 140.696 106.186 140.696 101.486V77.5061C140.696 72.8062 136.886 68.9961 132.186 68.9961Z" fill="#EEF8FF" stroke="#578CBC" stroke-width="2" stroke-miterlimit="10"/>
<path d="M132.176 114.996H29.2864C24.5864 114.996 20.7764 118.806 20.7764 123.506V147.486C20.7764 152.186 24.5864 155.996 29.2864 155.996H132.176C136.876 155.996 140.686 152.186 140.686 147.486V123.506C140.686 118.806 136.876 114.996 132.176 114.996Z" fill="#EEF8FF" stroke="#578CBC" stroke-width="2" stroke-miterlimit="10"/>
<path d="M131.306 76.996H40.9859C36.8359 76.996 32.6359 76.816 28.4859 76.996C28.4259 76.996 28.3659 76.996 28.3059 76.996C26.3759 76.996 26.3759 79.996 28.3059 79.996H118.626C122.776 79.996 126.976 80.176 131.126 79.996C131.186 79.996 131.246 79.996 131.306 79.996C133.236 79.996 133.236 76.996 131.306 76.996Z" fill="#578CBC"/>
<path d="M131.306 83.4961H87.8059C85.8759 83.4961 85.8759 86.4961 87.8059 86.4961H131.306C133.236 86.4961 133.236 83.4961 131.306 83.4961Z" fill="#578CBC"/>
<path d="M82.3059 83.4961H28.8059C26.8759 83.4961 26.8759 86.4961 28.8059 86.4961H82.3059C84.2359 86.4961 84.2359 83.4961 82.3059 83.4961Z" fill="#578CBC"/>
<path d="M131.306 89.996H40.9859C36.8359 89.996 32.6359 89.816 28.4859 89.996C28.4259 89.996 28.3659 89.996 28.3059 89.996C26.3759 89.996 26.3759 92.996 28.3059 92.996H118.626C122.776 92.996 126.976 93.176 131.126 92.996C131.186 92.996 131.246 92.996 131.306 92.996C133.236 92.996 133.236 89.996 131.306 89.996Z" fill="#578CBC"/>
<path d="M75.8059 96.4961H28.3059C26.3759 96.4961 26.3759 99.4961 28.3059 99.4961H75.8059C77.7359 99.4961 77.7359 96.4961 75.8059 96.4961Z" fill="#578CBC"/>
<path d="M131.306 120.496H87.8059C85.8759 120.496 85.8759 123.496 87.8059 123.496H131.306C133.236 123.496 133.236 120.496 131.306 120.496Z" fill="#578CBC"/>
<path d="M82.3059 120.496H28.8059C26.8759 120.496 26.8759 123.496 28.8059 123.496H82.3059C84.2359 123.496 84.2359 120.496 82.3059 120.496Z" fill="#578CBC"/>
<path d="M131.306 126.996H40.9859C36.8359 126.996 32.6359 126.816 28.4859 126.996C28.4259 126.996 28.3659 126.996 28.3059 126.996C26.3759 126.996 26.3759 129.996 28.3059 129.996H118.626C122.776 129.996 126.976 130.176 131.126 129.996C131.186 129.996 131.246 129.996 131.306 129.996C133.236 129.996 133.236 126.996 131.306 126.996Z" fill="#578CBC"/>
<path d="M131.306 140.496H40.9859C36.8359 140.496 32.6359 140.316 28.4859 140.496C28.4259 140.496 28.3659 140.496 28.3059 140.496C26.3759 140.496 26.3759 143.496 28.3059 143.496H118.626C122.776 143.496 126.976 143.676 131.126 143.496C131.186 143.496 131.246 143.496 131.306 143.496C133.236 143.496 133.236 140.496 131.306 140.496Z" fill="#578CBC"/>
<path d="M131.306 146.496H40.9859C36.8359 146.496 32.6359 146.316 28.4859 146.496C28.4259 146.496 28.3659 146.496 28.3059 146.496C26.3759 146.496 26.3759 149.496 28.3059 149.496H118.626C122.776 149.496 126.976 149.676 131.126 149.496C131.186 149.496 131.246 149.496 131.306 149.496C133.236 149.496 133.236 146.496 131.306 146.496Z" fill="#578CBC"/>
<path d="M53.8059 133.496H28.3059C26.3759 133.496 26.3759 136.496 28.3059 136.496H53.8059C55.7359 136.496 55.7359 133.496 53.8059 133.496Z" fill="#578CBC"/>
<path d="M130.806 133.496H59.3059C57.3759 133.496 57.3759 136.496 59.3059 136.496H130.806C132.736 136.496 132.736 133.496 130.806 133.496Z" fill="#578CBC"/>
<path d="M353.186 204.996H250.296C245.596 204.996 241.786 208.806 241.786 213.506V237.486C241.786 242.186 245.596 245.996 250.296 245.996H353.186C357.886 245.996 361.696 242.186 361.696 237.486V213.506C361.696 208.806 357.886 204.996 353.186 204.996Z" fill="#EEF8FF" stroke="#578CBC" stroke-width="2" stroke-miterlimit="10"/>
<path d="M353.176 250.996H250.286C245.586 250.996 241.776 254.806 241.776 259.506V283.486C241.776 288.186 245.586 291.996 250.286 291.996H353.176C357.876 291.996 361.686 288.186 361.686 283.486V259.506C361.686 254.806 357.876 250.996 353.176 250.996Z" fill="#EEF8FF" stroke="#578CBC" stroke-width="2" stroke-miterlimit="10"/>
<path d="M352.307 212.996H261.987C257.837 212.996 253.637 212.816 249.487 212.996C249.427 212.996 249.367 212.996 249.307 212.996C247.377 212.996 247.377 215.996 249.307 215.996H339.627C343.777 215.996 347.977 216.176 352.127 215.996C352.187 215.996 352.247 215.996 352.307 215.996C354.237 215.996 354.237 212.996 352.307 212.996Z" fill="#578CBC"/>
<path d="M352.306 219.496H308.806C306.876 219.496 306.876 222.496 308.806 222.496H352.306C354.236 222.496 354.236 219.496 352.306 219.496Z" fill="#578CBC"/>
<path d="M303.307 219.496H249.807C247.877 219.496 247.877 222.496 249.807 222.496H303.307C305.237 222.496 305.237 219.496 303.307 219.496Z" fill="#578CBC"/>
<path d="M352.307 225.996H261.987C257.837 225.996 253.637 225.816 249.487 225.996C249.427 225.996 249.367 225.996 249.307 225.996C247.377 225.996 247.377 228.996 249.307 228.996H339.627C343.777 228.996 347.977 229.176 352.127 228.996C352.187 228.996 352.247 228.996 352.307 228.996C354.237 228.996 354.237 225.996 352.307 225.996Z" fill="#578CBC"/>
<path d="M296.807 232.496H249.307C247.377 232.496 247.377 235.496 249.307 235.496H296.807C298.737 235.496 298.737 232.496 296.807 232.496Z" fill="#578CBC"/>
<path d="M352.306 256.496H308.806C306.876 256.496 306.876 259.496 308.806 259.496H352.306C354.236 259.496 354.236 256.496 352.306 256.496Z" fill="#578CBC"/>
<path d="M303.307 256.496H249.807C247.877 256.496 247.877 259.496 249.807 259.496H303.307C305.237 259.496 305.237 256.496 303.307 256.496Z" fill="#578CBC"/>
<path d="M352.307 262.996H261.987C257.837 262.996 253.637 262.816 249.487 262.996C249.427 262.996 249.367 262.996 249.307 262.996C247.377 262.996 247.377 265.996 249.307 265.996H339.627C343.777 265.996 347.977 266.176 352.127 265.996C352.187 265.996 352.247 265.996 352.307 265.996C354.237 265.996 354.237 262.996 352.307 262.996Z" fill="#578CBC"/>
<path d="M352.307 276.496H261.987C257.837 276.496 253.637 276.316 249.487 276.496C249.427 276.496 249.367 276.496 249.307 276.496C247.377 276.496 247.377 279.496 249.307 279.496H339.627C343.777 279.496 347.977 279.676 352.127 279.496C352.187 279.496 352.247 279.496 352.307 279.496C354.237 279.496 354.237 276.496 352.307 276.496Z" fill="#578CBC"/>
<path d="M352.307 282.496H261.987C257.837 282.496 253.637 282.316 249.487 282.496C249.427 282.496 249.367 282.496 249.307 282.496C247.377 282.496 247.377 285.496 249.307 285.496H339.627C343.777 285.496 347.977 285.676 352.127 285.496C352.187 285.496 352.247 285.496 352.307 285.496C354.237 285.496 354.237 282.496 352.307 282.496Z" fill="#578CBC"/>
<path d="M274.807 269.496H249.307C247.377 269.496 247.377 272.496 249.307 272.496H274.807C276.737 272.496 276.737 269.496 274.807 269.496Z" fill="#578CBC"/>
<path d="M351.806 269.496H280.306C278.376 269.496 278.376 272.496 280.306 272.496H351.806C353.736 272.496 353.736 269.496 351.806 269.496Z" fill="#578CBC"/>
<path d="M223.237 125.497C233.863 125.497 242.477 116.883 242.477 106.257C242.477 95.6306 233.863 87.0166 223.237 87.0166C212.611 87.0166 203.997 95.6306 203.997 106.257C203.997 116.883 212.611 125.497 223.237 125.497Z" fill="#64C4FF"/>
<path d="M224.887 115.837H222.617V99.6068H222.567L219.127 102.497L217.777 100.847L222.917 96.6768H224.887V115.827V115.837Z" fill="white"/>
</svg>
