<svg width="394" height="352" viewBox="0 0 394 352" fill="none" xmlns="http://www.w3.org/2000/svg">
<path d="M359.486 343.084C378.889 320.35 417.643 194.393 370.832 180.863C324.021 167.332 296.024 216.959 238.298 173.268C178.829 128.263 231.113 75.5799 231.691 47.363C232.636 1.67599 110.146 -32.4553 90.4697 50.4305C70.7935 133.327 93.6947 179.024 109.631 192.723C125.567 206.422 103.811 207.22 98.8003 195.99C93.7893 184.76 24.2661 149.358 3.12966 218.398C-18.0068 287.438 74.838 339.375 74.838 339.375L359.486 343.073V343.084Z" fill="#688CA7"/>
<path d="M235.976 159.99C238.56 152.248 238.476 145.031 232.499 143.035C227.11 141.238 222.141 146.649 219.451 154.685C216.541 162.753 217.508 169.938 222.897 171.735C228.58 173.636 233.161 168.415 235.976 159.99Z" fill="#E32D30"/>
<path d="M265.223 183.27C259.834 181.473 254.77 186.852 252.081 194.888C249.265 202.988 250.337 210.205 255.621 211.97C261.304 213.871 265.885 208.65 268.7 200.225C271.284 192.483 271.2 185.266 265.223 183.27Z" fill="#E32D30"/>
<path d="M299.775 156.733L276.002 98.8078C274.426 94.9524 269.793 93.3976 266.211 95.5092L212.256 127.277C209.42 128.254 207.056 130.481 206.027 133.538L184.659 197.031C182.726 202.756 185.815 208.965 191.54 210.898L265.738 235.858C271.464 237.791 277.672 234.703 279.605 228.977L300.973 165.484C302.002 162.427 301.456 159.223 299.796 156.733H299.775ZM268.186 105.352C272.23 106.708 274.405 111.078 273.06 115.112C271.716 119.146 267.335 121.331 263.301 119.986C259.267 118.642 257.082 114.261 258.427 110.227C259.771 106.193 264.152 104.008 268.186 105.352ZM212.498 152.678C216.753 139.946 226.102 135.114 234.527 137.929C243.446 140.913 247.029 149.737 242.963 161.881C238.477 175.306 229.191 179.603 220.965 176.851C212.74 174.098 208.306 165.537 212.498 152.668V152.678ZM211.437 203.408L270.865 150.094L276.349 151.932L216.921 205.246L211.437 203.408ZM253.689 217.096C245.757 214.438 241.03 205.782 245.19 193.018C249.476 180.181 258.826 175.359 267.251 178.174C276.17 181.158 279.658 189.94 275.592 202.095C271.106 215.52 261.82 219.817 253.689 217.096Z" fill="#E32D30"/>
<path d="M165.788 117.749L78.8475 178.837C75.9691 180.864 75.2653 184.846 77.2928 187.724L116.414 243.391C118.442 246.27 122.423 246.973 125.301 244.946L212.242 183.858C215.121 181.831 215.824 177.849 213.797 174.971L174.676 119.304C172.648 116.426 168.667 115.722 165.788 117.749ZM90.025 186.106C88.1236 187.441 85.4973 186.989 84.1632 185.087C82.829 183.186 83.2807 180.56 85.1822 179.226C87.0836 177.891 89.7099 178.343 91.044 180.245C92.3782 182.146 91.9265 184.772 90.025 186.106ZM99.8474 179.205C97.9459 180.539 95.3197 180.087 93.9855 178.186C92.6513 176.284 93.1031 173.658 95.0045 172.324C96.9059 170.99 99.5322 171.441 100.866 173.343C102.201 175.244 101.749 177.87 99.8474 179.205ZM109.67 172.303C107.768 173.637 105.142 173.185 103.808 171.284C102.474 169.382 102.925 166.756 104.827 165.422C106.728 164.088 109.355 164.539 110.689 166.441C112.023 168.342 111.571 170.969 109.67 172.303ZM119.492 165.401C117.591 166.735 114.964 166.283 113.63 164.382C112.296 162.48 112.748 159.854 114.649 158.52C116.551 157.186 119.177 157.637 120.511 159.539C121.845 161.44 121.393 164.067 119.492 165.401ZM129.314 158.499C127.413 159.833 124.787 159.381 123.453 157.48C122.118 155.578 122.57 152.952 124.472 151.618C126.373 150.284 128.999 150.736 130.333 152.637C131.668 154.538 131.216 157.165 129.314 158.499ZM139.137 151.597C137.235 152.931 134.609 152.479 133.275 150.578C131.941 148.677 132.392 146.05 134.294 144.716C136.195 143.382 138.822 143.834 140.156 145.735C141.49 147.637 141.038 150.263 139.137 151.597ZM148.959 144.695C147.058 146.029 144.431 145.578 143.097 143.676C141.763 141.775 142.215 139.148 144.116 137.814C146.018 136.48 148.644 136.932 149.978 138.833C151.312 140.735 150.86 143.361 148.959 144.695ZM158.781 137.793C156.88 139.127 154.254 138.676 152.92 136.774C151.585 134.873 152.037 132.246 153.939 130.912C155.84 129.578 158.466 130.03 159.8 131.931C161.135 133.833 160.683 136.459 158.781 137.793ZM168.604 130.891C166.702 132.225 164.076 131.774 162.742 129.872C161.408 127.971 161.859 125.345 163.761 124.01C165.662 122.676 168.289 123.128 169.623 125.029C170.957 126.931 170.505 129.557 168.604 130.891Z" fill="#195F0E"/>
<path d="M85.3592 196.947L180.507 130.101L212.206 175.221C213.939 177.688 213.343 181.098 210.876 182.831L124.66 243.402C122.193 245.136 118.783 244.54 117.049 242.073L85.3506 196.953L85.3592 196.947Z" fill="white"/>
<path d="M164.014 161.451C166.747 161.451 168.962 159.235 168.962 156.503C168.962 153.77 166.747 151.555 164.014 151.555C161.282 151.555 159.066 153.77 159.066 156.503C159.066 159.235 161.282 161.451 164.014 161.451Z" fill="#429615"/>
<path d="M176.093 152.963C178.826 152.963 181.041 150.748 181.041 148.015C181.041 145.283 178.826 143.067 176.093 143.067C173.361 143.067 171.146 145.283 171.146 148.015C171.146 150.748 173.361 152.963 176.093 152.963Z" fill="#429615"/>
<path d="M151.923 169.939C154.655 169.939 156.87 167.724 156.87 164.991C156.87 162.258 154.655 160.043 151.923 160.043C149.19 160.043 146.975 162.258 146.975 164.991C146.975 167.724 149.19 169.939 151.923 169.939Z" fill="#429615"/>
<path d="M123.073 205.95C125.806 205.95 128.021 203.734 128.021 201.002C128.021 198.269 125.806 196.054 123.073 196.054C120.34 196.054 118.125 198.269 118.125 201.002C118.125 203.734 120.34 205.95 123.073 205.95Z" fill="#429615"/>
<path d="M110.992 214.439C113.725 214.439 115.94 212.224 115.94 209.491C115.94 206.758 113.725 204.543 110.992 204.543C108.259 204.543 106.044 206.758 106.044 209.491C106.044 212.224 108.259 214.439 110.992 214.439Z" fill="#429615"/>
<path d="M171.407 171.987C174.14 171.987 176.355 169.771 176.355 167.039C176.355 164.306 174.14 162.091 171.407 162.091C168.674 162.091 166.459 164.306 166.459 167.039C166.459 169.771 168.674 171.987 171.407 171.987Z" fill="#429615"/>
<path d="M183.489 163.488C186.222 163.488 188.437 161.272 188.437 158.54C188.437 155.807 186.222 153.592 183.489 153.592C180.756 153.592 178.541 155.807 178.541 158.54C178.541 161.272 180.756 163.488 183.489 163.488Z" fill="#429615"/>
<path d="M135.155 197.452C137.888 197.452 140.103 195.236 140.103 192.504C140.103 189.771 137.888 187.556 135.155 187.556C132.422 187.556 130.207 189.771 130.207 192.504C130.207 195.236 132.422 197.452 135.155 197.452Z" fill="#429615"/>
<path d="M147.237 188.963C149.97 188.963 152.185 186.748 152.185 184.015C152.185 181.283 149.97 179.067 147.237 179.067C144.504 179.067 142.289 181.283 142.289 184.015C142.289 186.748 144.504 188.963 147.237 188.963Z" fill="#429615"/>
<path d="M159.328 180.476C162.06 180.476 164.276 178.261 164.276 175.528C164.276 172.795 162.06 170.58 159.328 170.58C156.595 170.58 154.38 172.795 154.38 175.528C154.38 178.261 156.595 180.476 159.328 180.476Z" fill="#429615"/>
<path d="M130.188 216.079C132.921 216.079 135.136 213.863 135.136 211.131C135.136 208.398 132.921 206.183 130.188 206.183C127.455 206.183 125.24 208.398 125.24 211.131C125.24 213.863 127.455 216.079 130.188 216.079Z" fill="#429615"/>
<path d="M118.106 224.566C120.839 224.566 123.054 222.351 123.054 219.618C123.054 216.885 120.839 214.67 118.106 214.67C115.373 214.67 113.158 216.885 113.158 219.618C113.158 222.351 115.373 224.566 118.106 224.566Z" fill="#429615"/>
<path d="M178.521 182.115C181.254 182.115 183.469 179.899 183.469 177.167C183.469 174.434 181.254 172.219 178.521 172.219C175.788 172.219 173.573 174.434 173.573 177.167C173.573 179.899 175.788 182.115 178.521 182.115Z" fill="#429615"/>
<path d="M190.603 173.617C193.336 173.617 195.551 171.401 195.551 168.669C195.551 165.936 193.336 163.721 190.603 163.721C187.871 163.721 185.655 165.936 185.655 168.669C185.655 171.401 187.871 173.617 190.603 173.617Z" fill="#429615"/>
<path d="M142.267 207.579C145 207.579 147.215 205.363 147.215 202.631C147.215 199.898 145 197.683 142.267 197.683C139.535 197.683 137.319 199.898 137.319 202.631C137.319 205.363 139.535 207.579 142.267 207.579Z" fill="#429615"/>
<path d="M154.36 199.09C157.093 199.09 159.308 196.875 159.308 194.142C159.308 191.41 157.093 189.194 154.36 189.194C151.627 189.194 149.412 191.41 149.412 194.142C149.412 196.875 151.627 199.09 154.36 199.09Z" fill="#429615"/>
<path d="M166.44 190.603C169.173 190.603 171.388 188.388 171.388 185.655C171.388 182.922 169.173 180.707 166.44 180.707C163.707 180.707 161.492 182.922 161.492 185.655C161.492 188.388 163.707 190.603 166.44 190.603Z" fill="#429615"/>
<path d="M137.3 226.204C140.032 226.204 142.247 223.989 142.247 221.257C142.247 218.524 140.032 216.309 137.3 216.309C134.567 216.309 132.352 218.524 132.352 221.257C132.352 223.989 134.567 226.204 137.3 226.204Z" fill="#429615"/>
<path d="M125.218 234.693C127.951 234.693 130.166 232.477 130.166 229.745C130.166 227.012 127.951 224.797 125.218 224.797C122.486 224.797 120.271 227.012 120.271 229.745C120.271 232.477 122.486 234.693 125.218 234.693Z" fill="#429615"/>
<path d="M185.643 192.241C188.376 192.241 190.591 190.025 190.591 187.293C190.591 184.56 188.376 182.345 185.643 182.345C182.911 182.345 180.695 184.56 180.695 187.293C180.695 190.025 182.911 192.241 185.643 192.241Z" fill="#429615"/>
<path d="M197.724 183.743C200.457 183.743 202.672 181.527 202.672 178.795C202.672 176.062 200.457 173.847 197.724 173.847C194.992 173.847 192.776 176.062 192.776 178.795C192.776 181.527 194.992 183.743 197.724 183.743Z" fill="#429615"/>
<path d="M149.391 217.705C152.124 217.705 154.339 215.49 154.339 212.757C154.339 210.025 152.124 207.81 149.391 207.81C146.659 207.81 144.443 210.025 144.443 212.757C144.443 215.49 146.659 217.705 149.391 217.705Z" fill="#429615"/>
<path d="M161.47 209.218C164.203 209.218 166.418 207.003 166.418 204.27C166.418 201.538 164.203 199.322 161.47 199.322C158.738 199.322 156.522 201.538 156.522 204.27C156.522 207.003 158.738 209.218 161.47 209.218Z" fill="#429615"/>
<path d="M173.552 200.73C176.285 200.73 178.5 198.515 178.5 195.782C178.5 193.049 176.285 190.834 173.552 190.834C170.82 190.834 168.604 193.049 168.604 195.782C168.604 198.515 170.82 200.73 173.552 200.73Z" fill="#429615"/>
<path d="M80.1534 171.873L79.8698 172.072C78.4693 173.056 78.1316 174.989 79.1155 176.389L83.2341 182.252C84.218 183.652 86.1509 183.99 87.5514 183.006L87.8351 182.807C89.2355 181.823 89.5732 179.89 88.5893 178.489L84.4707 172.627C83.4868 171.226 81.5539 170.889 80.1534 171.873Z" fill="#AFCBE0"/>
<path d="M89.8732 165.048L89.5895 165.248C88.189 166.232 87.8513 168.165 88.8352 169.565L92.9538 175.427C93.9377 176.828 95.8706 177.166 97.2711 176.182L97.5548 175.982C98.9553 174.999 99.293 173.066 98.3091 171.665L94.1904 165.803C93.2065 164.402 91.2736 164.065 89.8732 165.048Z" fill="#AFCBE0"/>
<path d="M99.9894 157.927L99.7057 158.127C98.3052 159.111 97.9675 161.044 98.9514 162.444L103.07 168.306C104.054 169.707 105.987 170.045 107.387 169.061L107.671 168.861C109.071 167.877 109.409 165.945 108.425 164.544L104.307 158.682C103.323 157.281 101.39 156.943 99.9894 157.927Z" fill="#AFCBE0"/>
<path d="M109.709 151.102L109.425 151.301C108.025 152.285 107.687 154.218 108.671 155.619L112.79 161.481C113.774 162.882 115.707 163.219 117.107 162.235L117.391 162.036C118.791 161.052 119.129 159.119 118.145 157.719L114.026 151.856C113.042 150.456 111.11 150.118 109.709 151.102Z" fill="#AFCBE0"/>
<path d="M119.447 144.273L119.164 144.472C117.763 145.456 117.426 147.389 118.409 148.79L122.528 154.652C123.512 156.053 125.445 156.39 126.845 155.406L127.129 155.207C128.529 154.223 128.867 152.29 127.883 150.89L123.765 145.027C122.781 143.627 120.848 143.289 119.447 144.273Z" fill="#AFCBE0"/>
<path d="M129.167 137.448L128.883 137.647C127.483 138.631 127.145 140.564 128.129 141.964L132.248 147.827C133.232 149.227 135.165 149.565 136.565 148.581L136.849 148.382C138.249 147.398 138.587 145.465 137.603 144.065L133.484 138.202C132.5 136.802 130.568 136.464 129.167 137.448Z" fill="#AFCBE0"/>
<path d="M138.882 130.605L138.598 130.804C137.198 131.788 136.86 133.721 137.844 135.122L141.963 140.984C142.947 142.385 144.879 142.722 146.28 141.738L146.564 141.539C147.964 140.555 148.302 138.622 147.318 137.222L143.199 131.359C142.215 129.959 140.282 129.621 138.882 130.605Z" fill="#AFCBE0"/>
<path d="M148.609 123.774L148.325 123.973C146.924 124.957 146.587 126.89 147.571 128.291L151.689 134.153C152.673 135.553 154.606 135.891 156.006 134.907L156.29 134.708C157.691 133.724 158.028 131.791 157.044 130.391L152.926 124.528C151.942 123.128 150.009 122.79 148.609 123.774Z" fill="#AFCBE0"/>
<path d="M158.733 116.661L158.449 116.86C157.048 117.844 156.711 119.777 157.695 121.177L161.813 127.04C162.797 128.44 164.73 128.778 166.131 127.794L166.414 127.595C167.815 126.611 168.152 124.678 167.168 123.277L163.05 117.415C162.066 116.015 160.133 115.677 158.733 116.661Z" fill="#AFCBE0"/>
<path d="M86.6135 204.068H311.949C314.88 204.068 317.265 206.453 317.265 209.384V297.648C317.265 312.461 305.237 324.489 290.424 324.489H108.139C93.3263 324.489 81.2979 312.461 81.2979 297.648V209.384C81.2979 206.453 83.6825 204.068 86.6135 204.068Z" fill="#FAFAFA" stroke="#305C8C" stroke-width="2.59" stroke-miterlimit="10"/>
<g filter="url(#filter0_d_1933_3500)">
<path d="M304.932 291.724V247.791C304.932 243.946 301.811 240.826 297.967 240.826H251.439C247.594 240.826 244.474 243.946 244.474 247.791V291.724C244.359 291.902 244.285 312.913 244.285 312.913C244.285 314.194 245.231 315.234 246.397 315.234L273.258 294.203C274.099 293.457 275.307 293.457 276.158 294.203L303.02 315.234C304.186 315.234 305.131 314.194 305.131 312.913C305.131 312.913 305.047 291.902 304.942 291.724H304.932Z" fill="#305C8C"/>
</g>
<path d="M343.087 308.131L336.963 297.017C335.692 294.716 332.803 293.886 330.502 295.147C328.201 296.408 327.372 299.307 328.632 301.608L331.227 306.303L330.555 306.671L326.258 298.887C324.987 296.586 322.098 295.756 319.797 297.017C317.497 298.288 316.667 301.177 317.927 303.478C317.927 303.478 321.751 311.062 321.657 310.873L316.036 300.673C314.765 298.372 311.876 297.542 309.576 298.803C307.275 300.074 306.445 302.963 307.706 305.263L313.326 315.464C313.431 315.643 298.104 288.487 298.104 288.487C296.833 286.186 292.557 285.062 290.267 286.333C287.977 287.604 287.252 291.649 288.513 293.949L303.892 322.019C302.044 320.149 299.039 320.139 297.169 321.988C295.299 323.837 295.289 326.841 297.138 328.711C297.138 328.711 314.723 345.992 315.669 346.15C322.371 350.698 331.321 351.413 338.896 347.232L339.305 347.011C350.063 341.086 353.971 327.566 348.046 316.809L344.012 309.497C343.739 309.003 343.423 308.552 343.087 308.131Z" fill="white" stroke="#305C8C" stroke-width="2.34" stroke-miterlimit="10"/>
<path d="M325.534 300.211C327.257 303.342 328.99 306.483 330.713 309.613L331.448 310.958C331.889 311.746 333.045 312.071 333.812 311.578C334.579 311.084 334.904 310.065 334.432 309.214C332.709 306.083 330.975 302.942 329.253 299.812L328.517 298.467C328.076 297.679 326.92 297.354 326.154 297.847C325.387 298.341 325.061 299.36 325.534 300.211Z" fill="#305C8C"/>
<path d="M316.94 304.938C318.537 307.837 320.134 310.736 321.731 313.636L322.414 314.875C323.202 316.304 325.397 315.022 324.609 313.594C323.012 310.694 321.416 307.795 319.819 304.896L319.136 303.656C318.348 302.227 316.153 303.509 316.94 304.938Z" fill="#305C8C"/>
<path d="M309.377 310.864C310.501 312.902 311.625 314.94 312.749 316.978L313.232 317.849C313.547 318.417 314.377 318.648 314.934 318.291C315.491 317.934 315.711 317.198 315.375 316.589C314.251 314.551 313.127 312.513 312.003 310.475L311.52 309.603C311.205 309.036 310.375 308.805 309.818 309.162C309.261 309.519 309.041 310.254 309.377 310.864Z" fill="#305C8C"/>
<path d="M282.179 270.208C281.3 268.947 279.566 268.636 278.307 269.514C277.049 270.392 276.741 272.126 277.621 273.387L281.527 278.988C282.406 280.249 284.139 280.56 285.398 279.682C286.657 278.804 286.964 277.07 286.085 275.809L282.179 270.208Z" fill="white"/>
<path d="M300.243 267.698C300.328 266.163 299.155 264.85 297.623 264.765C296.091 264.68 294.78 265.856 294.695 267.391L294.317 274.209C294.232 275.744 295.405 277.057 296.937 277.142C298.47 277.227 299.781 276.051 299.866 274.516L300.243 267.698Z" fill="white"/>
<path d="M269.195 283.794C267.7 283.435 266.198 284.353 265.839 285.845C265.48 287.337 266.401 288.838 267.896 289.198L274.535 290.794C276.03 291.154 277.533 290.235 277.892 288.743C278.25 287.251 277.329 285.75 275.835 285.391L269.195 283.794Z" fill="white"/>
<defs>
<filter id="filter0_d_1933_3500" x="240.285" y="240.826" width="68.8457" height="82.4082" filterUnits="userSpaceOnUse" color-interpolation-filters="sRGB">
<feFlood flood-opacity="0" result="BackgroundImageFix"/>
<feColorMatrix in="SourceAlpha" type="matrix" values="0 0 0 0 0 0 0 0 0 0 0 0 0 0 0 0 0 0 127 0" result="hardAlpha"/>
<feOffset dy="4"/>
<feGaussianBlur stdDeviation="2"/>
<feComposite in2="hardAlpha" operator="out"/>
<feColorMatrix type="matrix" values="0 0 0 0 0 0 0 0 0 0 0 0 0 0 0 0 0 0 0.25 0"/>
<feBlend mode="normal" in2="BackgroundImageFix" result="effect1_dropShadow_1933_3500"/>
<feBlend mode="normal" in="SourceGraphic" in2="effect1_dropShadow_1933_3500" result="shape"/>
</filter>
</defs>
</svg>
