<svg width="294" height="320" viewBox="0 0 294 320" fill="none" xmlns="http://www.w3.org/2000/svg">
<g clip-path="url(#clip0_1933_3459)">
<path d="M277.451 146.804C281.767 105.143 253.859 67.6291 213.955 59.2366L214.11 59.0736C213.131 58.9759 212.168 58.8536 211.213 58.7233C210.103 58.5277 208.977 58.3566 207.851 58.21C182.383 53.8344 164.259 38.956 155.217 29.7976C143.124 13.7784 124.706 2.62368 103.211 0.399248C62.0426 -3.85406 25.1988 26.2368 20.9146 67.6047C18.4176 91.6905 27.5245 114.277 43.6819 129.791C43.6085 129.775 43.5677 129.766 43.5677 129.766C51.3363 137.385 47.0032 143.496 46.8808 143.912C38.1411 150.104 30.1195 157.771 23.2077 166.84C-10.4781 211.036 -4.9944 271.788 35.4645 302.53C75.9152 333.273 136.024 322.363 169.71 278.168C177.993 267.298 183.901 255.434 187.508 243.261C191.881 234.836 209.916 223.176 224.547 214.743C252.757 204.493 274.146 178.777 277.459 146.804H277.451Z" fill="#ADE1F7"/>
<path d="M232.471 213.423L118.601 61.2735C115.794 57.5172 110.294 55.5698 106.287 56.9061L9.25313 89.2784C5.55651 90.517 1.94965 102.307 3.84284 105.289L117.532 284.067C121.156 289.762 128.198 292.027 133.2 289.11L230.749 232.188C233.344 230.672 235.318 217.22 232.471 213.406V213.423Z" fill="#173644"/>
<path d="M218.068 201.445L119.41 69.6257C116.978 66.3746 112.212 64.6798 108.736 65.8449L24.6685 93.8907C21.4615 94.9581 15.7493 100.01 19.9845 107.759L118.488 262.654C121.629 267.592 126.697 272.489 131.022 269.963L228.285 217.807C230.529 216.495 220.533 204.737 218.068 201.445Z" fill="#E3F8FF"/>
<path d="M81.6909 84.8889C83.4943 84.2717 84.4552 82.3116 83.837 80.5109C83.2189 78.7102 81.2558 77.7508 79.4525 78.3681L63.836 83.7128C62.0326 84.33 61.0718 86.2901 61.69 88.0908C62.3081 89.8915 64.2711 90.8509 66.0745 90.2337L81.6909 84.8889Z" fill="#173644"/>
<path d="M199.989 231.348C200.575 231.05 200.81 230.334 200.512 229.748C200.214 229.162 199.497 228.929 198.91 229.226L170.16 243.796C169.573 244.094 169.339 244.81 169.637 245.395C169.935 245.981 170.652 246.215 171.238 245.918L199.989 231.348Z" fill="#173644"/>
<path d="M167.457 175.046L170.332 180.762C171.962 184.002 170.652 187.951 167.407 189.578L122.093 212.305C121.014 212.846 119.7 212.411 119.158 211.333L113.748 200.579C112.429 197.958 113.489 194.764 116.114 193.447L158.634 172.122C161.879 170.494 165.834 171.802 167.464 175.042L167.457 175.046Z" fill="#D8B164"/>
<path d="M168.134 176.393L169.658 179.422C171.079 182.247 169.936 185.693 167.107 187.112L120.787 210.343C119.847 210.815 118.696 210.434 118.224 209.495L113.264 199.636C112.792 198.697 113.173 197.548 114.114 197.077L160.433 173.845C163.263 172.426 166.713 173.568 168.134 176.393Z" fill="#F9CB58"/>
<path d="M232.545 207.328C266.476 207.328 293.984 179.862 293.984 145.981C293.984 112.1 266.476 84.6343 232.545 84.6343C198.613 84.6343 171.105 112.1 171.105 145.981C171.105 179.862 198.613 207.328 232.545 207.328Z" fill="#F9CB58"/>
<path d="M232.545 199.514C262.155 199.514 286.158 175.547 286.158 145.981C286.158 116.416 262.155 92.4482 232.545 92.4482C202.935 92.4482 178.932 116.416 178.932 145.981C178.932 175.547 202.935 199.514 232.545 199.514Z" fill="#F4EBD7"/>
<path d="M260.796 182.973C274.024 175.42 281.025 163.728 281.025 146.584L260.796 182.973Z" fill="white"/>
<path d="M142.471 83.2653C148.265 59.644 143.785 45.6048 157.935 31.5168C162.806 26.6279 173.961 20.2561 183.093 18.0969C196.973 14.8132 209.932 19.3761 212.046 28.2901C213.767 35.5338 207.786 43.4211 198.042 47.8781L142.471 83.2653Z" fill="#CBFF4D"/>
<path d="M134.898 86.8584C130.198 67.686 133.829 56.2949 122.347 44.8632C118.398 40.8951 109.34 35.721 101.93 33.9692C90.6691 31.3047 80.1505 35.0121 78.4368 42.2395C77.0414 48.1143 81.8886 54.5187 89.8041 58.1364L134.906 86.8503L134.898 86.8584Z" fill="#FFD9FA"/>
<path d="M206.35 279.097C225.233 276.155 235.368 270.859 248.098 273.89C252.513 274.925 258.918 278.421 261.832 281.998C266.246 287.432 264.533 294.301 258.004 297.332C252.692 299.801 245.837 298.97 241.08 295.662L206.358 279.097H206.35Z" fill="#EFEF3F"/>
<path d="M193.579 276.025C204.375 264.911 208.357 256.534 218.085 252.289C221.447 250.806 227.314 249.951 230.945 250.847C236.47 252.216 238.714 257.504 235.964 262.654C233.728 266.842 228.881 269.653 224.18 269.824L193.579 276.025Z" fill="#EFEF3F"/>
<path d="M95.435 188.131C73.0676 168.038 65.6253 150.568 44.384 146.046C37.0397 144.449 23.9098 145.72 15.5047 149.892C2.73376 156.223 -3.362 169.928 1.89325 180.513C6.16925 189.109 16.6226 192.995 27.2474 190.755L95.435 188.131Z" fill="#54D174"/>
<path d="M89.3226 177.579C89.9917 161.976 94.5452 153.217 89.3389 143.219C87.5518 139.748 82.6964 134.916 78.2408 132.928C71.4759 129.905 63.9521 131.999 61.4388 137.605C59.3987 142.16 61.3 147.635 65.7148 151.147L89.3226 177.579Z" fill="#54D174"/>
<path d="M87.4132 191.903C76.2172 193.435 69.7624 190.877 62.8098 196.483C60.3944 198.414 57.1303 203.034 55.8817 206.945C53.9885 212.893 55.7838 218.768 59.8966 220.071C63.2423 221.131 67.0858 218.849 69.4197 214.767L87.405 191.903H87.4132Z" fill="#54D174"/>
<path d="M245.87 237.199L182.22 228.66L236.584 208.086L245.87 237.199Z" fill="#FFD9FA"/>
<path d="M4.65985 138.192L43.4703 115.141L2.62793 116.803L4.65985 138.192Z" fill="#49DB4C"/>
<path d="M20.2051 97.4754L37.913 101.289L26.5212 88.7651L20.2051 97.4754Z" fill="#4A84D8"/>
<path d="M119.704 124.992C124.47 127.151 129.015 122.841 132.344 115.516C135.404 108.785 136.074 102.308 131.055 100.034C126.534 97.981 121.63 102.438 118.455 109.421C115.077 116.42 115.183 122.939 119.704 124.992Z" fill="#D13622"/>
<path d="M155.495 138.754C150.974 136.701 145.988 141.125 142.806 148.108C139.509 155.14 139.697 161.699 144.136 163.712C148.902 165.871 153.447 161.561 156.776 154.235C159.837 147.505 160.506 141.027 155.487 138.754H155.495Z" fill="#D13622"/>
<path d="M171.212 65.2908C169.775 62.219 165.981 60.5649 162.741 61.6078L109.365 78.7433L76.8621 152.679C74.259 158.643 76.9927 165.586 82.966 168.185L147.302 196.198C153.275 198.797 160.228 196.068 162.831 190.103L194.958 116.004L171.212 65.2908ZM154.491 76.0544C155.911 72.787 159.722 71.2959 162.994 72.7137C166.267 74.1315 167.76 77.9366 166.34 81.204C164.92 84.4714 161.109 85.9625 157.837 84.5447C154.565 83.127 153.071 79.3218 154.491 76.0544ZM112.588 107.066C117.623 95.9928 126.289 92.4239 133.364 95.6261C140.847 99.0239 143.067 107.221 138.26 117.781C132.948 129.449 124.396 132.561 117.492 129.424C110.833 126.401 107.594 118.253 112.588 107.058V107.066ZM162.611 156.476C157.298 168.144 148.746 171.257 141.924 168.16C135.266 165.137 132.026 156.998 136.987 145.884C142.063 134.721 150.729 131.152 157.796 134.362C165.279 137.752 167.417 145.916 162.611 156.484V156.476ZM111.021 154.553L106.419 152.467L163.867 109.47L168.47 111.556L111.021 154.553Z" fill="#D13622"/>
<path opacity="0.66" d="M134.058 233.883C134.058 220.895 122.724 210.376 108.737 210.376C96.2596 210.376 85.9042 218.752 83.8151 229.785C80.8611 228.375 77.4419 227.568 73.8024 227.568C63.3327 227.568 54.7154 234.217 53.6546 242.74H45.8452C40.0269 242.74 35.3184 247.45 35.3184 253.251C35.3184 258.336 39.4475 262.459 44.5395 262.459H124.013C129.562 262.459 134.058 257.969 134.058 252.428V233.891V233.883Z" fill="#CFF1F9"/>
<path opacity="0.7" d="M169.963 142.029C169.963 132.072 178.654 124.006 189.376 124.006C198.94 124.006 206.88 130.435 208.488 138.884C210.756 137.809 213.368 137.181 216.167 137.181C224.196 137.181 230.798 142.274 231.614 148.809H237.604C242.059 148.809 245.674 152.418 245.674 156.867C245.674 160.762 242.508 163.923 238.607 163.923H177.674C173.423 163.923 169.971 160.477 169.971 156.232V146.804C169.971 146.144 169.971 142.999 169.971 142.021L169.963 142.029Z" fill="#92F5FF"/>
<path opacity="0.7" d="M105.448 110.276C105.448 102.56 98.7075 96.2939 90.3921 96.2939C82.9744 96.2939 76.8133 101.272 75.5729 107.832C73.8185 106.992 71.7866 106.512 69.6159 106.512C63.3896 106.512 58.2649 110.463 57.6366 115.532H52.9933C49.5334 115.532 46.7344 118.326 46.7344 121.781C46.7344 124.804 49.1906 127.257 52.2181 127.257H99.4664C102.763 127.257 105.44 124.584 105.44 121.292V110.276H105.448Z" fill="#92F5FF"/>
</g>
<defs>
<clipPath id="clip0_1933_3459">
<rect width="294" height="320" fill="white"/>
</clipPath>
</defs>
</svg>
